# xmcd
#
# Track frame offsets:
#	183
#	13200
#	27133
#	37373
#	51985
#	64420
#	77493
#	93033
#	104540
#	114938
#	127120
#	138278
#	152703
#	166658
#	178543
#	190593
#	204373
#	217095
#	230650
#	242368
#	254868
#	268030
#	279630
#	291158
#	303128
#
# Disc length: 4255 seconds
#
# Revision: 2
# Processed by: cddbd v1.4PL0 Copyright (c) Steve Scherf et al.
# Submitted via: audiograbber 1.81.03
#
DISCID=69109d19
DTITLE=Various Artist - 25 Blues Evergreens [CD 4]
DYEAR=1991
DGENRE=Blues
TTITLE0=Muddy Waters - Mannish Boy
TTITLE1=Howlin' Wolf - Smokestack Lightnin'
TTITLE2=John Mayall - Road Show
TTITLE3=John Lee Hooker - Sugar Mama
TTITLE4=Elmore James - I Need You
TTITLE5=Little Walter - Roller Coaster
TTITLE6=BB King - Walkin' And Cryin'
TTITLE7=Howlin' Wolf - Howlin' For My Baby
TTITLE8=Eric Clapton - West Coast Idea
TTITLE9=Sonny Boy Williamson - Trust My Baby
TTITLE10=John Lee Hooker - Bottle Up and Go
TTITLE11=John Mayall - John Lee Boogie
TTITLE12=Muddy Waters - You Can't Loose What You Ain't Never Had
TTITLE13=John Mayall - Lost And Gone
TTITLE14=John Lee Hooker - Frisco
TTITLE15=Little Walter - You're So Fine
TTITLE16=Sonny Boy Williamson - Keep It To Yourself
TTITLE17=BB King - Three O'clock Blues
TTITLE18=Muddy Waters - Goin' Home
TTITLE19=Howlin' Wolf - Little Baby
TTITLE20=Little Walter - Mean Old World
TTITLE21=Eric Clapton - Got To Hurry
TTITLE22=Sonny Boy Williamson - Stop Crying
TTITLE23=Muddy Waters - Long Distance Call
TTITLE24=John Lee Hooker - Wednesday Evening Blues
EXTD=Year: 1991 Id3g: 0
EXTT0=
EXTT1=
EXTT2=
EXTT3=
EXTT4=
EXTT5=
EXTT6=
EXTT7=
EXTT8=
EXTT9=
EXTT10=
EXTT11=
EXTT12=
EXTT13=
EXTT14=
EXTT15=
EXTT16=
EXTT17=
EXTT18=
EXTT19=
EXTT20=
EXTT21=
EXTT22=
EXTT23=
EXTT24=
PLAYORDER=
